<svg width="70" height="62" viewBox="0 0 70 62" fill="none" xmlns="http://www.w3.org/2000/svg">
  <path fill-rule="evenodd" clip-rule="evenodd" d="M32.578 1.09223C32.9354 0.918656 33.2927 0.745155 33.6572 0.576782L33.6809 3.57779C44.8244 0.333397 56.194 1.36034 63.392 6.50891H63.3937C73.5305 13.7604 69.8964 28.0293 66.2964 34.2087C63.804 38.4861 60.2643 42.6537 55.8584 46.411C54.6993 53.2784 52.8549 58.5243 50.5544 61.5328C48.9438 59.5793 47.582 56.8004 46.5011 52.9737C45.2148 53.7123 43.8864 54.4171 42.5182 55.0843C31.6265 60.396 15.0525 62.0466 6.34179 54.6928C0.21744 49.5235 -2.12779 38.1591 2.2586 29.1093C6.55761 20.2422 15.0517 12.8639 22.2709 8.5492C23.9528 7.54353 25.6804 6.64989 27.4354 5.86767C27.5712 4.0115 27.6299 2.88794 27.6299 2.88794C29.629 2.52439 31.1048 1.80771 32.578 1.09223ZM27.1154 9.78732C24.5456 10.903 22.1103 12.2552 19.9134 13.805C9.13003 21.4122 5.23645 30.3396 5.23645 38.5261C5.23645 49.0517 16.0801 56.3399 27.6053 55.398C37.2763 54.6123 43.9088 51.4302 45.8507 50.3915C44.8907 46.11 44.2183 40.7337 43.8656 34.0401H40.5907V39.9993H36.9592V34.0401H33.9062L33.9622 40.0133H30.2468L30.3001 34.0401H25.9277C24.4947 41.7329 21.9136 50.3038 17.8592 50.3038C13.6187 50.3038 9.41584 38.3094 9.41584 28.6182L24.4388 28.5649C25.8016 22.4216 26.6416 15.0523 27.1154 9.78732ZM56.5065 41.7816C60.774 37.0872 68.5999 26.4398 63.0766 16.2385C57.7801 6.45522 45.3075 4.55166 33.7122 7.52527L33.8783 28.5379H36.9601V22.1828H40.5889V28.5099H43.6734C43.6665 28.2262 43.6594 27.9412 43.6523 27.6547C43.6085 25.9027 43.5633 24.0937 43.5633 22.1802H47.3616C47.3612 24.2812 47.3793 26.3821 47.4158 28.4828L57.2127 28.4549C57.2127 33.2629 56.9654 37.7369 56.5065 41.7816ZM30.3342 28.5588L30.4924 10.731C30.4924 10.731 29.4945 19.7572 27.4105 28.5641L30.3342 28.5588ZM22.9534 34.0392H12.9634C12.9634 34.0392 13.7987 43.9444 17.7745 43.9444C20.6204 43.9444 22.2806 37.5859 22.9534 34.0392ZM53.5821 34.0392H47.6089C47.9331 40.8827 48.6985 47.7165 50.5544 50.2208C52.3134 46.8288 53.5821 38.6895 53.5821 34.0392Z" fill="#1A1A1A" />
</svg>
