<svg width="76" height="16" viewBox="0 0 76 16" fill="none" xmlns="http://www.w3.org/2000/svg">
  <path fill-rule="evenodd" clip-rule="evenodd" d="M15.4731 3.9697C15.4731 1.80441 13.6975 0 11.516 0H0V15.7241H11.516C13.6975 15.7241 15.4223 13.9197 15.4223 11.7544C15.4223 9.89847 14.154 8.35184 12.4799 7.88785C14.2048 7.42385 15.4731 5.82566 15.4731 3.9697Z" fill="#FA2841" />
  <path fill-rule="evenodd" clip-rule="evenodd" d="M31.2808 4.45944C28.7078 4.45944 27.7301 5.79215 27.164 7.12486H26.3406L26.9581 5.27957V0H23.6647V15.0698H26.9581V14.4547L26.3406 12.6095H27.164C27.6786 13.9934 28.7078 15.2749 31.2808 15.2749C34.2655 15.2749 35.8093 12.8145 35.8093 9.89279C35.7579 6.91983 34.2655 4.45944 31.2808 4.45944ZM29.737 12.3532C27.9874 12.3532 26.9581 11.5843 26.9581 9.84153C26.9581 8.09876 27.9359 7.32989 29.737 7.32989C31.4867 7.32989 32.5159 8.09876 32.5159 9.84153C32.4644 11.5843 31.4867 12.3532 29.737 12.3532Z" fill="#FA2841" />
  <path fill-rule="evenodd" clip-rule="evenodd" d="M45.3295 8.50882C45.3295 11.4305 44.146 12.3532 42.3448 12.3532C40.7496 12.3532 40.1835 11.6356 40.1835 9.73902V4.66448H36.89V10.2516C36.89 13.4296 38.4853 15.2236 41.1612 15.2236C43.374 15.2236 44.6606 13.7884 45.0722 11.9431H45.8956L45.2781 13.7884V15.0186H48.5716V4.66448H45.2781V8.50882H45.3295Z" fill="#FA2841" />
  <path fill-rule="evenodd" clip-rule="evenodd" d="M71.6773 4.45944C69.4645 4.45944 68.178 5.89467 67.7663 7.73995H66.9429L67.5605 5.89467V0H64.267V15.0698H67.5605V11.2255C67.5605 8.30379 68.7441 7.38115 70.5452 7.38115C72.1405 7.38115 72.7065 8.09876 72.7065 9.99531V15.0698H76V9.43147C75.9485 6.25347 74.3018 4.45944 71.6773 4.45944Z" fill="#FA2841" />
  <path fill-rule="evenodd" clip-rule="evenodd" d="M50.63 4.92077C50.63 4.97202 50.63 4.97202 50.63 4.92077V10.3029L61.1279 11.4305V12.0456C57.6286 12.4044 54.1293 12.4557 50.63 11.8406V14.7623C54.3866 15.4286 58.5549 15.4286 62.26 14.7623V9.38021L51.7621 8.25253V7.63744C55.2614 7.27863 58.7607 7.22737 62.26 7.84247V4.97202C58.5549 4.30567 54.3866 4.30567 50.63 4.92077Z" fill="#FA2841" />
</svg>
