<svg width="25" height="24" viewBox="0 0 25 24" fill="none" xmlns="http://www.w3.org/2000/svg">
  <path fill-rule="evenodd" clip-rule="evenodd" d="M3.7705 1.84553C2.92058 1.84553 2.34615 2.49719 2.34615 3.12217V24.0001H0.5V3.12217C0.5 1.40118 1.97957 0.00012207 3.7705 0.00012207C5.45383 0.00012207 6.89429 1.4394 6.89429 3.12217V14.881C6.89429 15.5442 7.50783 16.1577 8.17193 16.1577C8.83603 16.1577 9.44957 15.5442 9.44957 14.881V3.12217C9.44957 1.4394 10.89 0.00012207 12.5734 0.00012207C14.2567 0.00012207 15.6971 1.4394 15.6971 3.12217V14.881C15.6971 15.5442 16.3107 16.1577 16.9748 16.1577C17.6389 16.1577 18.2524 15.5442 18.2524 14.881V3.12217C18.2524 1.4394 19.6929 0.00012207 21.3762 0.00012207C23.0595 0.00012207 24.5 1.4394 24.5 3.12217V24.0001H22.6538V3.12217C22.6538 2.45897 22.0403 1.84553 21.3762 1.84553C20.7121 1.84553 20.0986 2.45897 20.0986 3.12217V14.881C20.0986 16.5638 18.6581 18.0031 16.9748 18.0031C15.2915 18.0031 13.851 16.5638 13.851 14.881V3.12217C13.851 2.45897 13.2375 1.84553 12.5734 1.84553C11.9093 1.84553 11.2957 2.45897 11.2957 3.12217V14.881C11.2957 16.5638 9.85526 18.0031 8.17193 18.0031C6.48861 18.0031 5.04814 16.5638 5.04814 14.881V3.12217C5.04814 2.45897 4.43461 1.84553 3.7705 1.84553Z" fill="white" />
</svg>
