<svg width="25" height="26" viewBox="0 0 25 26" fill="none" xmlns="http://www.w3.org/2000/svg">
  <path d="M21.6765 0.949707C20.063 0.949707 18.7521 2.26063 18.7521 3.87408V6.49593V10.5295C18.7521 11.5379 17.9454 12.3447 17.0378 12.3447C16.1303 12.3447 15.3235 11.5379 15.3235 10.5295V6.49593V3.87408C15.3235 2.26063 14.0126 0.949707 12.5 0.949707C10.8866 0.949707 9.57563 2.26063 9.57563 3.87408V6.49593V10.5295C9.57563 11.5379 8.76891 12.3447 7.86135 12.3447C6.95378 12.3447 6.14706 11.5379 6.14706 10.5295V6.49593V3.87408C6.2479 2.26063 4.93698 0.949707 3.42437 0.949707C1.81092 0.949707 0.5 2.26063 0.5 3.87408V6.49593V16.8825V20.2102V22.9329C0.5 24.0421 1.40756 25.0505 2.51681 25.0505H6.44958C7.55882 25.0505 8.46639 24.143 8.46639 22.9329V21.0169C8.46639 19.9077 7.55882 18.8993 6.44958 18.8993H3.52521C2.51681 18.8993 1.60924 17.9917 1.60924 16.9833V6.49593C1.60924 5.48752 2.41597 4.6808 3.32353 4.6808C4.23109 4.6808 5.03782 5.48752 5.03782 6.49593V10.5295V13.1514C5.03782 14.7648 6.34874 16.0758 7.96219 16.0758C9.57563 16.0758 10.7857 14.7648 10.7857 13.1514V10.5295V6.49593C10.7857 5.48752 11.5924 4.6808 12.5 4.6808C13.4076 4.6808 14.2143 5.48752 14.2143 6.49593V10.5295V13.1514C14.2143 14.7648 15.5252 16.0758 17.1387 16.0758C18.7521 16.0758 19.9622 14.7648 19.9622 13.1514V10.5295V6.49593C19.9622 5.48752 20.7689 4.6808 21.6765 4.6808C22.584 4.6808 23.3908 5.48752 23.3908 6.49593V16.8825C23.3908 17.9917 22.584 18.7984 21.4748 18.7984H18.5504C17.4412 18.7984 16.5336 19.706 16.5336 20.9161V22.8321C16.5336 23.9413 17.4412 24.9497 18.5504 24.9497H22.4832C23.5924 24.9497 24.5 24.0421 24.5 22.8321V20.1094V16.7816V6.49593V3.87408C24.5 2.26063 23.1891 0.949707 21.6765 0.949707Z" fill="white" />
</svg>
