<svg width="25" height="24" viewBox="0 0 25 24" fill="none" xmlns="http://www.w3.org/2000/svg">
  <path fill-rule="evenodd" clip-rule="evenodd" d="M24.0355 0.00012207H0.964516C0.732258 0.00012207 0.5 0.231536 0.5 0.46295V18.2047C0.5 18.4361 0.732258 18.6675 0.964516 18.6675H11.029V24.0001H14.0484V18.6675H24.0355C24.2677 18.6675 24.5 18.4361 24.5 18.2047V0.46295C24.5 0.231536 24.2677 0.00012207 24.0355 0.00012207ZM7.3129 5.86261C6.84839 5.86261 6.46129 6.2483 6.46129 6.71113V13.345H5.60968V6.71113C5.60968 5.78547 6.38387 5.01409 7.39032 5.01409C8.39677 5.01409 9.17097 5.78547 9.17097 6.71113V11.8794C9.17097 12.3422 9.55806 12.7279 10.0226 12.7279C10.4871 12.7279 10.8742 12.3422 10.8742 11.8794V6.71113C10.8742 5.78547 11.6484 5.01409 12.5774 5.01409C13.5065 5.01409 14.3581 5.78547 14.3581 6.71113V11.8794C14.3581 12.3422 14.7452 12.7279 15.2097 12.7279C15.6742 12.7279 16.0613 12.3422 16.0613 11.8794V6.71113C16.0613 5.78547 16.8355 5.01409 17.8419 5.01409C18.771 5.01409 19.5452 5.78547 19.5452 6.71113V13.345H18.6935V6.71113C18.6935 6.2483 18.3065 5.86261 17.8419 5.86261C17.3774 5.86261 16.9903 6.2483 16.9903 6.71113V11.8794C16.9903 12.805 16.2161 13.5764 15.2097 13.5764C14.2806 13.5764 13.5065 12.805 13.5065 11.8794V6.71113C13.5065 6.2483 13.1194 5.86261 12.6548 5.86261C12.1903 5.86261 11.8032 6.2483 11.8032 6.71113V11.8794C11.8032 12.805 11.029 13.5764 10.0226 13.5764C9.09355 13.5764 8.31936 12.805 8.31936 11.8794V6.71113C8.16452 6.2483 7.77742 5.86261 7.3129 5.86261ZM23.571 17.7419H14.0484V15.8906H21.7129V2.77709H3.2871V15.8906H10.9516V17.7419H1.35161V0.84864H23.571V17.7419Z" fill="white" />
</svg>
