<svg width="202" height="329" viewBox="0 0 202 329" fill="none" xmlns="http://www.w3.org/2000/svg">
  <path d="M78.6116 3.49438C78.6116 2.09134 77.5194 1.0001 76.1153 1.0001C74.7111 1.0001 73.619 2.09134 73.619 3.49438" stroke="#E60018" stroke-width="0.7087" stroke-miterlimit="10" stroke-linejoin="round" />
  <path d="M78.6117 103.11C78.6117 104.513 79.7038 105.605 81.108 105.605C82.5121 105.605 83.6042 104.513 83.6042 103.11" stroke="#E60018" stroke-width="0.7087" stroke-miterlimit="10" stroke-linejoin="round" />
  <path d="M88.5965 3.49438C88.5965 2.09134 87.5044 1.0001 86.1003 1.0001C84.6961 1.0001 83.604 2.09134 83.604 3.49438" stroke="#E60018" stroke-width="0.7087" stroke-miterlimit="10" stroke-linejoin="round" />
  <path d="M88.5966 103.11C88.5966 104.513 89.6887 105.605 91.0928 105.605C92.497 105.605 93.5891 104.513 93.5891 103.11" stroke="#E60018" stroke-width="0.7087" stroke-miterlimit="10" stroke-linejoin="round" />
  <path d="M98.5817 3.49438C98.5817 2.09134 97.4895 1.00009 96.0854 1.00009C94.6812 1.00009 93.5891 2.09134 93.5891 3.49438" stroke="#E60018" stroke-width="0.7087" stroke-miterlimit="10" stroke-linejoin="round" />
  <path d="M98.5818 103.11C98.5818 104.513 99.6739 105.605 101.078 105.605C102.482 105.605 103.574 104.513 103.574 103.11" stroke="#E60018" stroke-width="0.7087" stroke-miterlimit="10" stroke-linejoin="round" />
  <path d="M108.411 3.49438C108.411 2.09134 107.319 1.00009 105.914 1.00009C104.51 1.00009 103.418 2.09134 103.418 3.49438" stroke="#E60018" stroke-width="0.7087" stroke-miterlimit="10" stroke-linejoin="round" />
  <path d="M71.1228 105.605C72.527 105.605 73.6191 104.513 73.6191 103.11" stroke="#E60018" stroke-width="0.7087" stroke-miterlimit="10" stroke-linejoin="round" />
  <path d="M108.411 103.11C108.411 104.513 109.503 105.605 110.907 105.605C112.311 105.605 113.403 104.513 113.403 103.11" stroke="#E60018" stroke-width="0.7087" stroke-miterlimit="10" stroke-linejoin="round" />
  <path d="M73.619 3.49444L73.619 32.3347" stroke="#E60018" stroke-width="0.7087" stroke-miterlimit="10" stroke-linejoin="round" />
  <path d="M73.619 43.4032L73.619 63.2016" stroke="#E60018" stroke-width="0.7087" stroke-miterlimit="10" stroke-linejoin="round" />
  <path d="M73.619 74.2701L73.619 103.11" stroke="#E60018" stroke-width="0.7087" stroke-miterlimit="10" stroke-linejoin="round" />
  <path d="M78.6117 3.49444L78.6117 32.3347" stroke="#E60018" stroke-width="0.7087" stroke-miterlimit="10" stroke-linejoin="round" />
  <path d="M78.6117 43.4032L78.6117 63.2016" stroke="#E60018" stroke-width="0.7087" stroke-miterlimit="10" stroke-linejoin="round" />
  <path d="M78.6117 74.2701L78.6117 103.11" stroke="#E60018" stroke-width="0.7087" stroke-miterlimit="10" stroke-linejoin="round" />
  <path d="M83.604 3.49442L83.604 32.3347" stroke="#E60018" stroke-width="0.7087" stroke-miterlimit="10" stroke-linejoin="round" />
  <path d="M83.6041 43.4032L83.6041 63.2016" stroke="#E60018" stroke-width="0.7087" stroke-miterlimit="10" stroke-linejoin="round" />
  <path d="M83.6041 74.2701L83.6041 103.11" stroke="#E60018" stroke-width="0.7087" stroke-miterlimit="10" stroke-linejoin="round" />
  <path d="M88.5966 3.49442L88.5966 32.3347" stroke="#E60018" stroke-width="0.7087" stroke-miterlimit="10" stroke-linejoin="round" />
  <path d="M88.5966 43.4032L88.5966 63.2016" stroke="#E60018" stroke-width="0.7087" stroke-miterlimit="10" stroke-linejoin="round" />
  <path d="M88.5966 74.2701L88.5966 103.11" stroke="#E60018" stroke-width="0.7087" stroke-miterlimit="10" stroke-linejoin="round" />
  <path d="M93.5892 3.49442L93.5892 32.3347" stroke="#E60018" stroke-width="0.7087" stroke-miterlimit="10" stroke-linejoin="round" />
  <path d="M93.5892 43.4032L93.5892 63.2016" stroke="#E60018" stroke-width="0.7087" stroke-miterlimit="10" stroke-linejoin="round" />
  <path d="M93.5892 74.2701L93.5892 103.11" stroke="#E60018" stroke-width="0.7087" stroke-miterlimit="10" stroke-linejoin="round" />
  <path d="M98.5818 3.49442L98.5818 32.3347" stroke="#E60018" stroke-width="0.7087" stroke-miterlimit="10" stroke-linejoin="round" />
  <path d="M98.5818 43.4032L98.5818 63.2016" stroke="#E60018" stroke-width="0.7087" stroke-miterlimit="10" stroke-linejoin="round" />
  <path d="M98.5818 74.2701L98.5818 103.11" stroke="#E60018" stroke-width="0.7087" stroke-miterlimit="10" stroke-linejoin="round" />
  <path d="M103.418 3.49442L103.418 32.3347" stroke="#E60018" stroke-width="0.7087" stroke-miterlimit="10" stroke-linejoin="round" />
  <path d="M103.418 43.4032L103.418 63.2016" stroke="#E60018" stroke-width="0.7087" stroke-miterlimit="10" stroke-linejoin="round" />
  <path d="M103.418 74.2701L103.418 103.11" stroke="#E60018" stroke-width="0.7087" stroke-miterlimit="10" stroke-linejoin="round" />
  <path d="M108.411 3.49444L108.411 32.3347" stroke="#E60018" stroke-width="0.7087" stroke-miterlimit="10" stroke-linejoin="round" />
  <path d="M108.411 43.4032L108.411 63.2016" stroke="#E60018" stroke-width="0.7087" stroke-miterlimit="10" stroke-linejoin="round" />
  <path d="M108.411 74.2701L108.411 103.11" stroke="#E60018" stroke-width="0.7087" stroke-miterlimit="10" stroke-linejoin="round" />
  <path d="M66.5983 105.605L71.1228 105.605" stroke="#E60018" stroke-width="0.7087" stroke-miterlimit="10" stroke-linejoin="round" />
  <path d="M130.877 105.605L135.402 105.605" stroke="#E60018" stroke-width="0.7087" stroke-miterlimit="10" stroke-linejoin="round" />
  <path d="M118.396 3.49438C118.396 2.09134 117.304 1.00009 115.9 1.00009C114.496 1.00009 113.403 2.09134 113.403 3.49438" stroke="#E60018" stroke-width="0.7087" stroke-miterlimit="10" stroke-linejoin="round" />
  <path d="M118.396 103.11C118.396 104.513 119.488 105.605 120.892 105.605C122.296 105.605 123.388 104.513 123.388 103.11" stroke="#E60018" stroke-width="0.7087" stroke-miterlimit="10" stroke-linejoin="round" />
  <path d="M113.403 3.49444L113.403 32.3347" stroke="#E60018" stroke-width="0.7087" stroke-miterlimit="10" stroke-linejoin="round" />
  <path d="M113.403 43.4032L113.403 63.2016" stroke="#E60018" stroke-width="0.7087" stroke-miterlimit="10" stroke-linejoin="round" />
  <path d="M113.403 74.2701L113.403 103.11" stroke="#E60018" stroke-width="0.7087" stroke-miterlimit="10" stroke-linejoin="round" />
  <path d="M118.396 3.49444L118.396 32.3347" stroke="#E60018" stroke-width="0.7087" stroke-miterlimit="10" stroke-linejoin="round" />
  <path d="M118.396 43.4032L118.396 63.2016" stroke="#E60018" stroke-width="0.7087" stroke-miterlimit="10" stroke-linejoin="round" />
  <path d="M118.396 74.2701L118.396 103.11" stroke="#E60018" stroke-width="0.7087" stroke-miterlimit="10" stroke-linejoin="round" />
  <path d="M128.381 3.49438C128.381 2.09133 127.289 1.00009 125.885 1.00009C124.48 1.00009 123.388 2.09133 123.388 3.49438" stroke="#E60018" stroke-width="0.7087" stroke-miterlimit="10" stroke-linejoin="round" />
  <path d="M128.381 103.11C128.381 104.513 129.473 105.605 130.877 105.605" stroke="#E60018" stroke-width="0.7087" stroke-miterlimit="10" stroke-linejoin="round" />
  <path d="M123.388 3.49444L123.388 32.3347" stroke="#E60018" stroke-width="0.7087" stroke-miterlimit="10" stroke-linejoin="round" />
  <path d="M123.388 43.4032L123.388 63.2016" stroke="#E60018" stroke-width="0.7087" stroke-miterlimit="10" stroke-linejoin="round" />
  <path d="M123.388 74.2701L123.388 103.11" stroke="#E60018" stroke-width="0.7087" stroke-miterlimit="10" stroke-linejoin="round" />
  <path d="M128.381 3.49444L128.381 32.3347" stroke="#E60018" stroke-width="0.7087" stroke-miterlimit="10" stroke-linejoin="round" />
  <path d="M128.381 43.4032L128.381 63.2016" stroke="#E60018" stroke-width="0.7087" stroke-miterlimit="10" stroke-linejoin="round" />
  <path d="M128.381 74.2701L128.381 103.11" stroke="#E60018" stroke-width="0.7087" stroke-miterlimit="10" stroke-linejoin="round" />
  <path d="M65.1942 329L65.1942 191.658" stroke="#E60018" stroke-width="0.7087" stroke-miterlimit="10" stroke-linejoin="round" />
  <path d="M65.1942 131.951L65.1942 74.2701" stroke="#E60018" stroke-width="0.7087" stroke-miterlimit="10" stroke-linejoin="round" />
  <path d="M65.1942 63.2016L65.1942 43.4032" stroke="#E60018" stroke-width="0.7087" stroke-miterlimit="10" stroke-linejoin="round" />
  <path d="M65.1942 32.3347L65.1942 1.00016L68.1585 1.00016L68.1585 32.3347" stroke="#E60018" stroke-width="0.7087" stroke-miterlimit="10" stroke-linejoin="round" />
  <path d="M68.1584 43.4032L68.1584 63.2016" stroke="#E60018" stroke-width="0.7087" stroke-miterlimit="10" stroke-linejoin="round" />
  <path d="M68.1584 74.2701L68.1584 131.951" stroke="#E60018" stroke-width="0.7087" stroke-miterlimit="10" stroke-linejoin="round" />
  <path d="M68.1584 191.658L68.1584 329" stroke="#E60018" stroke-width="0.7087" stroke-miterlimit="10" stroke-linejoin="round" />
  <path d="M136.806 329L136.806 191.658" stroke="#E60018" stroke-width="0.7087" stroke-miterlimit="10" stroke-linejoin="round" />
  <path d="M136.806 131.951L136.806 74.2701" stroke="#E60018" stroke-width="0.7087" stroke-miterlimit="10" stroke-linejoin="round" />
  <path d="M136.806 63.2016L136.806 43.4032" stroke="#E60018" stroke-width="0.7087" stroke-miterlimit="10" stroke-linejoin="round" />
  <path d="M136.806 32.3347L136.806 1.00015L133.841 1.00015L133.841 32.3347" stroke="#E60018" stroke-width="0.7087" stroke-miterlimit="10" stroke-linejoin="round" />
  <path d="M133.841 43.4032L133.841 63.2016" stroke="#E60018" stroke-width="0.7087" stroke-miterlimit="10" stroke-linejoin="round" />
  <path d="M133.842 74.2701L133.842 131.951" stroke="#E60018" stroke-width="0.7087" stroke-miterlimit="10" stroke-linejoin="round" />
  <path d="M133.842 191.658L133.842 329" stroke="#E60018" stroke-width="0.7087" stroke-miterlimit="10" stroke-linejoin="round" />
  <path d="M41.3237 43.4031L160.833 43.4031L160.833 63.3575L41.3237 63.3575L41.3237 43.4031ZM160.677 74.2701L160.677 131.951L41.3237 131.951L41.3237 74.2701L160.677 74.2701ZM160.677 32.3347L41.3237 32.3347L1.38342 32.3347L1.38342 191.658L200.617 191.658L200.617 32.4906L160.677 32.4906L160.677 32.3347Z" fill="#EDEEEF" />
  <path d="M67.5346 105.605C67.5346 105.088 67.1155 104.669 66.5985 104.669C66.0815 104.669 65.6624 105.088 65.6624 105.605C65.6624 106.121 66.0815 106.54 66.5985 106.54C67.1155 106.54 67.5346 106.121 67.5346 105.605Z" fill="#E60018" />
  <path d="M136.338 105.605C136.338 105.088 135.919 104.669 135.402 104.669C134.885 104.669 134.465 105.088 134.465 105.605C134.465 106.121 134.885 106.54 135.402 106.54C135.919 106.54 136.338 106.121 136.338 105.605Z" fill="#E60018" />
  <path d="M1.38342 46.3651L15.2689 32.3347M1.38342 90.9507L41.3237 51.1978M49.1246 43.4031L60.0457 32.3347M1.38342 135.692L41.3237 95.9392M63.0101 74.2701L73.9312 63.2016M93.7454 43.4031L104.823 32.3347M1.38342 180.278L49.9047 131.951M107.631 74.27L118.552 63.2016M138.522 43.4031L149.443 32.3347M34.927 191.658L94.6815 131.951M152.408 74.27L194.22 32.3347M79.5478 191.658L139.302 131.951M160.677 110.437L200.617 70.6845M124.325 191.658L133.842 181.992L136.806 179.03L200.617 115.426M168.945 191.658L200.617 160.011M15.581 191.658L1.38342 177.472M60.2018 191.658L1.38342 132.73M104.979 191.658L45.2241 131.951M41.3237 127.897L1.38342 88.1446M149.755 191.658L90.001 131.951M41.3237 83.3119L1.38342 43.4031M194.376 191.658L134.622 131.951M76.8956 74.27L65.9744 63.2016M46.0042 43.4031L35.083 32.3347M200.617 153.152L160.677 113.243M121.672 74.27L110.595 63.2016M90.7811 43.4031L79.8599 32.3347M200.617 108.411L155.372 63.2016M135.402 43.4031L133.842 41.6883L124.481 32.3347M200.617 63.6693L169.258 32.3347" stroke="#B0B0B0" stroke-miterlimit="10" stroke-linejoin="round" />
  <path d="M41.3237 43.4031L160.833 43.4031L160.833 63.3575L41.3237 63.3575L41.3237 43.4031ZM160.677 74.27L160.677 131.951L41.3237 131.951L41.3237 74.2701L160.677 74.27ZM160.677 32.3347L41.3237 32.3347L1.38342 32.3347L1.38342 191.658L200.617 191.658L200.617 32.4906L160.677 32.4906L160.677 32.3347Z" stroke="#1B1C20" stroke-width="0.8504" stroke-miterlimit="10" stroke-linecap="round" stroke-linejoin="round" />
</svg>
