<svg width="36" height="36" viewBox="0 0 36 36" fill="none" xmlns="http://www.w3.org/2000/svg">
  <path d="M30.8 2H5.2C3.44 2 2 3.44 2 5.2V30.8C2 32.56 3.44 34 5.2 34H30.8C32.56 34 34 32.56 34 30.8V5.2C34 3.44 32.56 2 30.8 2ZM11.6 29.2H6.8V14.8H11.6V29.2ZM9.2 12.08C7.6 12.08 6.32 10.8 6.32 9.2C6.32 7.6 7.6 6.32 9.2 6.32C10.8 6.32 12.08 7.6 12.08 9.2C12.08 10.8 10.8 12.08 9.2 12.08ZM29.2 29.2H24.4V20.72C24.4 19.4401 23.28 18.32 22 18.32C20.72 18.32 19.6 19.4401 19.6 20.72V29.2H14.8V14.8H19.6V16.72C20.4 15.44 22.16 14.48 23.6 14.48C26.64 14.48 29.2 17.04 29.2 20.08V29.2Z" fill="#E60018" />
</svg>
