<svg width="224" height="78" viewBox="0 0 224 78" fill="none" xmlns="http://www.w3.org/2000/svg">
  <path fill-rule="evenodd" clip-rule="evenodd" d="M64.1 53.2V0H53.4V21.3H10.9V0H0.300049V53.1H10.9V31.9H53.4V53.2H64.1ZM122.5 31.9H90.6C87.7 31.9 85.3 34.3 85.3 37.2V53.1H74.7001V37.2C74.7001 28.4 81.8 21.3 90.6 21.3H122.5C125.4 21.3 127.8 18.9 127.8 16C127.8 13.1 125.4 10.7 122.5 10.7H74.7001V0H122.5C131.3 0 138.4 7.1 138.4 15.9C138.4 24.7 131.3 31.9 122.5 31.9ZM181 16V37.3C181 40.2 183.4 42.6 186.3 42.6C189.2 42.6 191.6 40.2 191.6 37.3V16C191.6 7.2 198.7 0.100002 207.5 0.100002C216.3 0.100002 223.4 7.2 223.4 16V53.2H212.8V16C212.8 13.1 210.4 10.7 207.5 10.7C204.6 10.7 202.2 13.1 202.2 16V37.3C202.2 46.1 195.1 53.2 186.3 53.2C177.5 53.2 170.4 46 170.4 37.2V16C170.4 13.1 168 10.7 165.1 10.7C162.2 10.7 159.8 13.1 159.8 16V53.2H149.2V16C149.2 7.2 156.3 0.100002 165.1 0.100002C173.9 0.100002 181 7.2 181 16Z" fill="#E60018" />
  <path d="M2.10004 73.7V66.8H5.60004V73.7H7.40005V65.2H2.10004V61.3H0.300049V73.7H2.10004ZM47.6 69.5C47.6 66.9 45.8 65 43.4 65C41.9 65 40.8 65.7 40.2001 66.6C40.2001 66.4 40.2001 66.2 40.2001 65.8V65.3H38.5V77.6H40.3V73.5C40.3 73.1 40.3 72.8 40.3 72.7C40.7001 73.6 41.9 74.1 43.3 74.1C45.8 74 47.6 72.1 47.6 69.5ZM43 66.5C44.6 66.5 45.8 67.7 45.8 69.4C45.8 71.1 44.6 72.3 43 72.3C41.4 72.3 40.2001 71.1 40.2001 69.4C40.2001 67.8 41.4 66.5 43 66.5ZM124.5 68.2C124.5 66.3 123.1 65 121.2 65C120.1 65 119.2 65.5 118.7 66.2C118.2 65.4 117.3 65 116.2 65C114.3 65 112.8 66.3 112.8 68.2V73.8H114.6V68.2C114.6 67.2 115.3 66.6 116.2 66.6C117.1 66.6 117.8 67.3 117.8 68.2V73.8H119.6V68.2C119.6 67.2 120.3 66.6 121.2 66.6C122.1 66.6 122.8 67.3 122.8 68.2V73.8H124.6V68.2H124.5ZM10.7001 63.8C11.3001 63.8 11.8 63.3 11.8 62.7C11.8 62.1 11.3001 61.6 10.7001 61.6C10.1 61.6 9.60004 62.1 9.60004 62.7C9.60004 63.3 10.1 63.8 10.7001 63.8ZM11.6 73.7V65.2H9.80005V73.7H11.6ZM13.5 69.4C13.5 72 15.3001 73.8 17.7001 73.8C19.1 73.8 20.2 73.1 20.6 72.3H20.7001C20.7001 72.5 20.7001 72.7 20.7001 73.1V76H16.1V77.6H22.4V65.3H20.8V65.8C20.8 66.2 20.8 66.4 20.8 66.6C20.3 65.7 19.2001 65 17.7001 65C15.2001 65 13.5 66.8 13.5 69.4ZM18 66.5C19.6 66.5 20.7001 67.7 20.7001 69.3C20.7001 70.9 19.6 72.1 18 72.1C16.4 72.1 15.3 70.9 15.3 69.3C15.3 67.7 16.5 66.5 18 66.5ZM26.6 73.7V66.8H30.1V73.7H31.9V65.2H26.6V61.3H24.8V73.7H26.6ZM62 72.3L61 71.2C60.4 72 59.6 72.4 58.6 72.4C57.1 72.4 56.1 71.5 55.9 70.1H62.7001C62.7001 69.9 62.7001 69.7 62.7001 69.5C62.7001 66.9 61 65 58.5 65C55.9 65 54 66.9 54 69.5C54 72.1 55.9 74 58.5 74C60 74 61.2 73.4 62 72.3ZM58.5 66.5C59.9 66.5 60.8 67.5 61 68.8H55.9C56.1 67.4 57.1 66.5 58.5 66.5ZM71.8 66.7C71 65.6 69.8 65 68.3 65C65.7 65 63.7001 66.9 63.7001 69.5C63.7001 72.1 65.6 74 68.3 74C69.9 74 71.1 73.2 71.8 72.2L70.7001 71.1C70.2001 71.8 69.4 72.4 68.3 72.4C66.7 72.4 65.6 71.2 65.6 69.5C65.6 67.8 66.7 66.6 68.3 66.6C69.4 66.6 70.2001 67.1 70.7001 67.8L71.8 66.7ZM74.4 63.8C75 63.8 75.5001 63.3 75.5001 62.7C75.5001 62.1 75 61.6 74.4 61.6C73.8 61.6 73.3 62.1 73.3 62.7C73.3 63.3 73.7001 63.8 74.4 63.8ZM75.2001 73.7V65.2H73.4V73.7H75.2001ZM79.0001 67.3C79.0001 66.7 79.5 66.4 80.1 66.4C80.9 66.4 81.5 66.9 81.8 67.6L83.1 66.9C82.7 65.8 81.7 65 80.1 65C78.5 65 77.3 66.1 77.3 67.4C77.3 68.8 78.1001 69.4 79.2001 69.9L80.2001 70.4C81.0001 70.8 81.3 71.1 81.3 71.6C81.3 72.3 80.8 72.6 80.1 72.6C79.1 72.6 78.5 71.9 78.4 71.1L77.0001 71.9C77.3001 73.1 78.3 74.1 80.1 74.1C82 74.1 83.1 73 83.1 71.6C83.1 70.3 82.3 69.7 81.3 69.2L80.2001 68.7C79.3 68.1 79.0001 67.9 79.0001 67.3ZM85.8 63.8C86.4 63.8 86.9 63.3 86.9 62.7C86.9 62.1 86.4 61.6 85.8 61.6C85.2 61.6 84.7001 62.1 84.7001 62.7C84.7001 63.3 85.2 63.8 85.8 63.8ZM86.7001 73.7V65.2H84.9V73.7H86.7001ZM93.0001 74C95.6001 74 97.5001 72.1 97.5001 69.5C97.5001 66.9 95.6001 65 93.0001 65C90.4001 65 88.5001 66.9 88.5001 69.5C88.5001 72.1 90.4001 74 93.0001 74ZM93.0001 72.4C91.4001 72.4 90.3 71.2 90.3 69.5C90.3 67.8 91.4001 66.6 93.0001 66.6C94.6001 66.6 95.7001 67.8 95.7001 69.5C95.8 71.2 94.6001 72.4 93.0001 72.4ZM134.3 72.3L133.3 71.2C132.7 72 131.9 72.4 130.9 72.4C129.4 72.4 128.4 71.5 128.2 70.1H135C135 69.9 135 69.7 135 69.5C135 66.9 133.3 65 130.8 65C128.2 65 126.3 66.9 126.3 69.5C126.3 72.1 128.2 74 130.8 74C132.2 74 133.4 73.4 134.3 72.3ZM130.7 66.5C132.1 66.5 133 67.5 133.2 68.8H128.1C128.3 67.4 129.3 66.5 130.7 66.5ZM136.1 69.5C136.1 72.1 137.8 74 140.4 74C141.9 74 143.1 73.3 143.5 72.3C143.5 72.5 143.5 72.8 143.5 73.2V73.8H145.1V65.3H143.5V65.8C143.5 66.2 143.5 66.5 143.5 66.6C143.1 65.7 142 65 140.5 65C137.9 65 136.1 66.9 136.1 69.5ZM140.7 72.4C139.1 72.4 137.9 71.2 137.9 69.5C137.9 67.8 139.1 66.6 140.7 66.6C142.3 66.6 143.5 67.8 143.5 69.5C143.5 71.2 142.3 72.4 140.7 72.4ZM148.9 67.3C148.9 66.7 149.4 66.4 150 66.4C150.8 66.4 151.4 66.9 151.7 67.6L153 66.9C152.6 65.8 151.6 65 150 65C148.4 65 147.2 66.1 147.2 67.4C147.2 68.8 148 69.4 149 69.9L150 70.4C150.8 70.8 151.1 71.1 151.1 71.6C151.1 72.3 150.6 72.6 149.9 72.6C148.9 72.6 148.3 71.9 148.1 71.1L146.7 71.9C147 73.1 148 74.1 149.8 74.1C151.7 74.1 152.8 73 152.8 71.6C152.8 70.3 152 69.7 151 69.2L149.9 68.7C149.2 68.1 148.9 67.9 148.9 67.3ZM176.7 72.3L175.7 71.2C175.1 72 174.3 72.4 173.3 72.4C171.8 72.4 170.8 71.5 170.6 70.1H177.4C177.4 69.9 177.4 69.7 177.4 69.5C177.4 66.9 175.7 65 173.2 65C170.6 65 168.7 66.9 168.7 69.5C168.7 72.1 170.6 74 173.2 74C174.6 74 175.8 73.4 176.7 72.3ZM173.1 66.5C174.5 66.5 175.4 67.5 175.6 68.8H170.5C170.7 67.4 171.7 66.5 173.1 66.5ZM190.8 68.2C190.8 66.3 189.4 65 187.5 65C186.4 65 185.5 65.5 185 66.2C184.5 65.4 183.6 65 182.5 65C180.6 65 179.1 66.3 179.1 68.2V73.8H180.9V68.2C180.9 67.2 181.6 66.6 182.5 66.6C183.4 66.6 184.1 67.3 184.1 68.2V73.8H185.9V68.2C185.9 67.2 186.6 66.6 187.5 66.6C188.4 66.6 189.1 67.3 189.1 68.2V73.8H190.9V68.2H190.8ZM200.5 72.3L199.5 71.2C198.9 72 198.1 72.4 197.1 72.4C195.6 72.4 194.6 71.5 194.4 70.1H201.2C201.2 69.9 201.2 69.7 201.2 69.5C201.2 66.9 199.5 65 197 65C194.4 65 192.5 66.9 192.5 69.5C192.5 72.1 194.4 74 197 74C198.5 74 199.7 73.4 200.5 72.3ZM197 66.5C198.4 66.5 199.3 67.5 199.5 68.8H194.4C194.6 67.4 195.6 66.5 197 66.5ZM212.6 73.7H216.4V72.1H214.4V66.7H216.7V65.1H214.4V62.9H212.6V65.1H211.7V66.7H212.6V73.7ZM219.6 67.3C219.6 66.7 220.1 66.4 220.7 66.4C221.5 66.4 222.1 66.9 222.4 67.6L223.7 66.9C223.3 65.8 222.3 65 220.7 65C219.1 65 217.9 66.1 217.9 67.4C217.9 68.8 218.7 69.4 219.7 69.9L220.7 70.4C221.5 70.8 221.8 71.1 221.8 71.6C221.8 72.3 221.3 72.6 220.6 72.6C219.6 72.6 219 71.9 218.9 71.1L217.5 71.9C217.8 73.1 218.8 74.1 220.6 74.1C222.5 74.1 223.6 73 223.6 71.6C223.6 70.3 222.8 69.7 221.8 69.2L220.7 68.7C219.9 68.1 219.6 67.9 219.6 67.3ZM52.4 65C50.4 65 49.3 66.1 49.3 68.1V73.8H51.1V68.3C51.1 67.1 51.7001 66.6 52.7001 66.6C52.9001 66.6 53.1 66.6 53.3 66.7V65.1C53.1 65.1 52.8 65 52.4 65ZM99.3 68.3V73.7H101.1V68.3C101.1 67.2 101.8 66.5 102.9 66.5C103.9 66.5 104.7 67.2 104.7 68.3V73.7H106.5V68.3C106.5 66.3 105 64.9 102.9 64.9C100.8 64.9 99.3 66.3 99.3 68.3ZM161.8 70.6V65.2H160V70.6C160 71.6 159.3 72.4 158.2 72.4C157.2 72.4 156.5 71.7 156.5 70.6V65.2H154.7V70.5C154.7 72.5 156.2 73.9 158.2 73.9C160.3 74 161.8 72.6 161.8 70.6ZM167.1 65C165.1 65 164 66.1 164 68.1V73.8H165.8V68.3C165.8 67.1 166.4 66.6 167.4 66.6C167.6 66.6 167.8 66.6 168 66.7V65.1C167.8 65.1 167.4 65 167.1 65ZM202.9 68.3V73.7H204.7V68.3C204.7 67.2 205.4 66.5 206.5 66.5C207.5 66.5 208.3 67.2 208.3 68.3V73.7H210.1V68.3C210.1 66.3 208.6 64.9 206.5 64.9C204.3 65 202.9 66.3 202.9 68.3Z" fill="white" />
</svg>
