<svg width="88" height="65" viewBox="0 0 88 65" fill="none" xmlns="http://www.w3.org/2000/svg">
  <path fill-rule="evenodd" clip-rule="evenodd" d="M53.4049 2.13175C59.0196 2.94846 64.5513 4.51522 69.6767 6.98202C74.4371 9.28215 78.8907 12.374 82.3242 16.4409C85.7826 20.4995 88.0964 25.7248 87.9969 31.1334C88.0384 36.667 85.5918 41.9757 81.9842 46.0592C78.6336 49.8761 74.3957 52.8263 69.8591 55.0431C63.5312 58.1183 56.5979 59.8267 49.6148 60.4351C49.7724 60.0767 49.9631 59.7434 50.1456 59.4017C56.0257 58.835 61.856 57.4682 67.2965 55.1348C72.0818 53.0763 76.6017 50.2511 80.2425 46.4759C83.9414 42.6674 86.6617 37.6838 86.9934 32.3001C87.3998 26.8332 85.2103 21.4245 81.7354 17.2909C78.4926 13.3824 74.2795 10.3822 69.7596 8.14042C64.5679 5.55694 58.9367 3.95685 53.2142 3.11514C53.2722 2.79012 53.3469 2.4651 53.4049 2.13175ZM65.787 13.1324C65.8949 14.3658 67.1057 15.1408 68.2004 15.3992C68.9966 15.6492 69.9587 15.2492 70.307 14.4824C69.9421 14.3158 69.5937 14.1158 69.2205 13.9574C68.6151 14.9491 67.0394 14.1741 67.1223 13.1407C67.1803 12.4823 67.5038 11.8073 68.0512 11.4156C68.839 10.8739 70.1411 11.649 69.8343 12.6323C70.224 12.7907 70.5724 13.0324 70.9787 13.1407C71.128 12.6073 71.128 11.999 70.788 11.5406C70.224 10.7322 69.2537 10.2322 68.2834 10.1572C66.7657 10.1072 65.7539 11.7406 65.787 13.1324ZM73.6741 13.0407C72.7453 14.3408 71.8496 15.6575 70.9456 16.9743C71.2856 17.2409 71.6505 17.4743 72.0071 17.7243C72.8945 16.3826 73.84 15.0825 74.7108 13.7241C74.3542 13.5074 74.0224 13.2657 73.6741 13.0407ZM75.5401 16.6659C75.2084 17.0409 75.2499 17.6243 75.5236 18.0243C75.9051 18.616 76.4358 19.091 76.9832 19.5327C76.5105 19.9911 76.0461 20.4578 75.565 20.9078C75.8221 21.2412 76.1539 21.5078 76.4358 21.8245C77.6052 20.7245 78.7082 19.5661 79.8693 18.4493C79.6122 18.1327 79.3137 17.8493 79.0483 17.541C78.559 17.9576 78.1194 18.441 77.6467 18.8744C77.2237 18.5243 76.6763 18.141 76.6017 17.566C76.7676 16.9826 77.4062 16.7159 77.7462 16.2409C77.4476 15.9409 77.1574 15.6408 76.8505 15.3492C76.411 15.7825 75.9548 16.2075 75.5401 16.6659ZM81.9095 29.0666C80.9724 29.325 80.2757 30.3167 80.4167 31.2917C80.5245 32.3585 81.5612 33.2585 82.6393 33.1252C83.7258 33.0335 84.6132 31.9834 84.5054 30.8834C84.4307 29.65 83.0872 28.6999 81.9095 29.0666ZM76.0958 41.0506C76.4441 41.3923 76.7925 41.7423 77.1657 42.0507C76.7925 42.434 76.469 42.8591 76.0792 43.2257C75.7475 42.8841 75.4157 42.5507 75.0757 42.2174C74.8352 42.4507 74.5947 42.6924 74.3542 42.9424C75.3079 43.8341 76.2368 44.7508 77.1905 45.6342C77.4062 45.3759 77.6467 45.1342 77.8706 44.8842C77.4642 44.5008 77.0744 44.1008 76.6432 43.7508C76.9915 43.3591 77.3564 42.9841 77.7213 42.6007C78.1111 42.9757 78.5009 43.3591 78.8907 43.7341C79.1395 43.4924 79.38 43.2508 79.5873 42.9674C78.7331 42.1674 77.8872 41.359 77.0413 40.5506C76.7012 40.1006 76.3944 40.8673 76.0958 41.0506ZM71.9574 44.8258C71.0368 45.8259 71.7749 47.4177 72.8282 47.9844C73.4668 48.3677 74.2547 48.1177 74.8186 47.7093C75.6728 47.1343 76.1373 46.1009 75.6065 45.2425C75.3411 45.4509 75.0923 45.6842 74.7854 45.8259C75.1089 46.4426 74.603 47.2093 73.9229 47.201C73.1682 47.201 72.6955 46.4759 72.5462 45.8092C72.3803 45.0592 73.4751 44.3258 74.0307 44.9425C74.3044 44.7342 74.5615 44.5175 74.8269 44.2925C73.9976 43.3758 72.5877 43.9758 71.9574 44.8258ZM69.4776 46.4759C70.1162 47.6177 70.8046 48.7261 71.5095 49.8261C71.7832 49.6428 72.0652 49.4594 72.3389 49.2844C71.6754 48.1677 70.987 47.0676 70.3236 45.9509C70.025 46.0842 69.7679 46.3009 69.4776 46.4759ZM66.4008 48.3177C65.9695 48.9261 66.4671 49.9095 67.2135 49.9095C67.8604 49.9095 68.4658 49.5594 69.121 49.5928C69.3864 49.6178 69.5108 49.9761 69.3284 50.1678C68.9469 50.5512 68.2087 50.8762 67.8189 50.3345C67.5287 50.5012 67.2384 50.6595 66.9564 50.8262C67.1969 51.4012 67.8936 51.6012 68.4575 51.4762C69.1459 51.3095 69.8177 50.9429 70.2323 50.3345C70.5972 49.7845 70.3567 48.9094 69.7099 48.7094C68.9717 48.476 68.2751 49.0094 67.5453 49.0011C67.313 49.0094 67.1223 48.7261 67.2882 48.5427C67.5701 48.176 68.1507 47.8593 68.5571 48.226C68.839 48.0927 69.1127 47.9344 69.3864 47.7843C69.1874 47.4177 68.781 47.2093 68.3746 47.2343C67.595 47.2677 66.8403 47.6843 66.4008 48.3177ZM32.9781 5.9153C33.1938 7.51539 33.4011 9.11548 33.625 10.7072C34.0397 10.6489 34.4544 10.6156 34.8608 10.5489C34.811 9.99886 34.7032 9.45716 34.6866 8.8988C35.4994 8.75712 36.4033 8.79879 37.1 8.2821C37.7552 7.8154 37.7883 6.81535 37.3986 6.16531C37.0917 5.68195 36.478 5.54861 35.9389 5.56528C34.9437 5.63195 33.9651 5.80696 32.9781 5.9153ZM34.3714 6.72368C34.8359 6.64867 35.3086 6.52366 35.7813 6.54033C36.3453 6.56533 36.4863 7.44872 36.0053 7.6904C35.5574 7.93208 35.0183 7.87374 34.529 7.95708C34.4627 7.54872 34.4212 7.14037 34.3714 6.72368ZM28.1762 6.83201C27.2225 7.03203 26.2604 7.65706 26.0282 8.65712C25.796 9.75718 26.219 11.0656 27.2059 11.6656C28.2758 12.2657 29.611 11.8656 30.5565 11.2073C31.701 10.3489 31.5434 8.57378 30.714 7.54872C30.1086 6.80701 29.0636 6.632 28.1762 6.83201ZM28.2509 7.82374C28.6987 7.68206 29.2461 7.74873 29.5447 8.13209C29.9344 8.64045 30.092 9.31549 30.0174 9.94886C29.8598 11.0239 28.1514 11.3489 27.6372 10.3739C27.0815 9.57384 27.0649 8.04042 28.2509 7.82374ZM19.5262 9.99886C19.634 10.2905 19.7418 10.5822 19.8828 10.8656C20.3638 10.6489 20.8531 10.4656 21.3424 10.2739C21.8483 11.4573 22.2796 12.6823 22.8104 13.8574C23.1753 13.6824 23.5734 13.5824 23.93 13.3907C23.449 12.1823 22.9679 10.9823 22.5118 9.76551C23.0094 9.57384 23.4987 9.38216 23.988 9.17381C23.8719 8.89046 23.7558 8.61545 23.648 8.3321C22.2547 8.82379 20.8946 9.42383 19.5262 9.99886ZM16.4825 11.6656C15.2882 11.9073 14.1022 12.7824 13.8949 14.0491C13.7954 15.2408 14.5335 16.5159 15.6863 16.9076C16.4742 17.1576 17.3284 16.8909 17.9919 16.4326C18.6885 16.0075 19.2691 15.2992 19.3105 14.4574C19.3769 12.974 18.0582 11.3573 16.4825 11.6656ZM16.2254 12.7407C17.1708 12.5407 17.8426 13.5324 18.0416 14.3324C18.307 15.2242 17.3201 16.0575 16.4825 15.8992C15.7029 15.6575 15.2219 14.8158 15.1058 14.0491C15.0643 13.3907 15.6614 12.9157 16.2254 12.7407ZM9.53255 16.7909C10.0385 17.8493 10.5609 18.9077 11.1 19.9494C10.0219 19.4827 8.91054 19.0994 7.8158 18.6744C7.40113 19.116 7.01134 19.5661 6.62155 20.0244C7.81581 21.0828 8.99348 22.1662 10.196 23.2163C10.4697 22.9163 10.7517 22.6162 11.0171 22.3079C10.196 21.5328 9.35839 20.7828 8.54563 19.9994C9.65695 20.4245 10.7766 20.8661 11.8962 21.2662C12.0952 21.0578 12.3192 20.8745 12.5016 20.6411C11.9708 19.5661 11.4318 18.4993 10.9341 17.4076C11.7718 18.116 12.568 18.8827 13.389 19.6161C13.6627 19.2911 14.0442 19.0244 14.2101 18.641C13.0407 17.5743 11.8547 16.5159 10.6605 15.4742C10.2624 15.8992 9.89746 16.3492 9.53255 16.7909ZM5.12043 29.0833C4.26621 29.35 3.65249 30.2333 3.70225 31.1334C3.72713 32.0001 4.34085 32.8168 5.17019 33.0502C5.95807 33.3002 6.86206 32.9752 7.34308 32.3085C7.90703 31.5751 7.89874 30.4584 7.30161 29.7416C6.804 29.0999 5.89172 28.8249 5.12043 29.0833ZM5.08726 37.6171C5.25313 37.9088 5.4107 38.2088 5.57657 38.5088C6.38104 38.0671 7.1855 37.6004 8.00655 37.1921C7.38455 37.9671 6.71278 38.7005 6.07418 39.4672C6.19029 39.6839 6.2981 39.9089 6.4308 40.1172C7.40113 39.9756 8.37976 39.8422 9.35009 39.7172C8.56222 40.2089 7.71628 40.5923 6.91182 41.059C7.07769 41.359 7.24356 41.659 7.40943 41.959C8.54563 41.3506 9.67354 40.7089 10.818 40.1172C10.5941 39.7006 10.3536 39.2922 10.1297 38.8755C9.19252 38.9755 8.25536 39.1005 7.3182 39.2172C7.93191 38.4838 8.55392 37.7588 9.18423 37.0421C8.97689 36.6087 8.73638 36.192 8.48757 35.7837C7.35967 36.3837 6.21517 36.9921 5.08726 37.6171ZM10.5941 40.9173C9.42474 41.1673 8.48758 42.534 9.00177 43.7008C9.31692 44.3591 9.86429 44.9592 10.5526 45.2342C11.8879 45.6509 13.4139 44.3008 13.1817 42.9257C12.908 41.809 11.8132 40.7256 10.5941 40.9173ZM10.8429 41.9257C11.5064 41.6257 12.3026 42.2757 12.286 42.9674C12.2196 43.5424 11.7386 43.9841 11.2576 44.2425C10.5112 44.6425 9.51596 43.7591 9.81453 42.9674C10.0053 42.5007 10.3951 42.134 10.8429 41.9257ZM13.8286 43.2007C13.6876 43.4008 13.5383 43.6008 13.3973 43.8008C13.7373 44.0758 14.0857 44.3341 14.4257 44.6092C13.8286 45.4675 13.1402 46.2426 12.5099 47.0676C12.7504 47.3176 13.0241 47.526 13.3061 47.7343C13.9695 46.926 14.5999 46.0842 15.2302 45.2509C15.5868 45.5009 15.9185 45.7842 16.2751 46.0426C16.4161 45.8426 16.5654 45.6426 16.6981 45.4342C15.7195 44.7092 14.7989 43.9258 13.8286 43.2007ZM16.8059 46.0676C15.5536 46.4426 14.7989 48.2344 15.6946 49.3011C16.3083 49.9761 17.2455 50.5262 18.1826 50.2845C19.3769 49.9178 20.1067 48.326 19.4349 47.2176C18.8378 46.4176 17.8177 45.8176 16.8059 46.0676ZM17.3118 46.926C17.9753 46.7176 18.7963 47.326 18.6719 48.051C18.5724 48.6594 18.166 49.3094 17.5357 49.4594C16.9137 49.5011 16.1756 48.9344 16.3332 48.251C16.4576 47.7093 16.781 47.151 17.3118 46.926ZM20.6126 47.7343C20.0984 48.9177 19.5593 50.1011 19.0368 51.2845C19.3437 51.4179 19.6506 51.5346 19.9574 51.6762C20.1979 51.2679 20.3638 50.8179 20.5628 50.3845C20.9692 50.5845 21.5829 50.6595 21.7239 51.1595C21.7073 51.5762 21.4088 51.9346 21.4337 52.3596C21.7571 52.4679 22.064 52.618 22.3625 52.768C22.3708 52.1096 23.0758 51.3846 22.4206 50.8179C23.1587 50.9679 23.7558 50.1678 23.5568 49.4844C23.4158 49.0761 23.0426 48.8011 22.6611 48.6344C21.981 48.3344 21.301 48.0177 20.6126 47.7343ZM21.1931 48.8511C21.5912 48.9844 22.0059 49.1261 22.3459 49.3761C22.7026 49.6178 22.4123 50.2512 22.0059 50.2011C21.5746 50.1511 21.2014 49.9011 20.8199 49.7178C20.9526 49.4261 21.0853 49.1428 21.1931 48.8511ZM38.9577 60.2517C38.6343 60.4267 38.5348 60.8268 38.4518 61.1601C38.3855 61.5185 38.203 61.8935 38.3108 62.2602C38.3689 62.5352 38.767 62.5769 38.9328 62.3852C39.306 61.9852 39.3143 61.3935 39.4139 60.8851C39.4719 60.6017 39.3392 60.0934 38.9577 60.2517ZM38.8748 59.5017C39.3143 59.4517 39.87 59.5017 40.1271 59.9184C40.5252 60.5184 40.4091 61.2934 40.2432 61.9518C40.0359 62.7435 39.3226 63.3019 38.4187 63.2602C37.7303 63.2019 37.1663 62.7352 37.2576 62.0518C37.3488 61.0434 37.7801 59.76 38.8748 59.5017ZM35.8809 59.9934C35.4579 60.0184 35.0515 60.6017 35.375 60.9601C35.8062 61.2684 36.4199 60.7684 36.3038 60.2767C36.2789 60.0767 36.0633 59.9767 35.8809 59.9934ZM34.2222 60.8768C34.247 59.5933 35.856 58.785 36.9009 59.51C37.523 59.9684 37.2907 60.8851 36.8512 61.3851C36.337 61.9518 35.6818 62.3852 35.0847 62.8602C34.6783 62.8019 34.2636 62.7685 33.849 62.7102C34.3217 62.3602 34.811 62.0268 35.2671 61.6518C34.7944 61.6768 34.2056 61.4351 34.2222 60.8768ZM32.3976 58.8183C32.8703 58.8933 33.3513 58.9516 33.8241 59.035C33.3513 60.2017 32.7708 61.3268 32.1571 62.4185C31.8171 62.4685 31.4439 62.3018 31.0872 62.2768C31.56 61.4018 32.1239 60.5684 32.5386 59.66C32.3727 59.635 32.1986 59.61 32.0327 59.5933C32.1239 59.3183 32.2732 59.0683 32.3976 58.8183ZM40.9896 59.6934C41.9351 59.71 42.8805 59.735 43.826 59.735C43.2703 60.9684 42.6483 62.1768 41.9185 63.3186C41.4955 63.2936 41.0726 63.3019 40.6579 63.2769C41.2633 62.3935 41.877 61.5018 42.3829 60.5517C41.8936 60.5351 41.4126 60.5184 40.9233 60.5101C40.8984 60.2351 40.9564 59.9684 40.9896 59.6934ZM26.4844 3.88185C32.6215 2.09008 39.0324 1.3317 45.41 1.44004C45.1281 1.73173 44.9124 2.08175 44.6885 2.4151C38.3523 2.36509 31.9912 3.19014 25.9287 5.06525C20.7121 6.68201 15.6946 9.07381 11.3571 12.424C7.65823 15.2908 4.44037 18.9327 2.59093 23.2829C1.29715 26.2915 0.741489 29.6166 1.06493 32.8835C1.3635 36.0087 2.44994 39.0338 4.07546 41.709C6.59667 45.8509 10.2707 49.1761 14.3262 51.7512C17.8841 54.0097 21.7737 55.7265 25.7877 56.9932C25.7794 57.3432 25.7628 57.6849 25.738 58.0266C20.4467 56.3682 15.338 53.968 10.9176 50.5928C7.27673 47.801 4.08375 44.3008 2.09332 40.1256C0.650261 37.1254 -0.104443 33.7835 0.0116655 30.4584C0.0863065 27.2665 0.965412 24.1163 2.43335 21.2912C4.56477 17.1743 7.84898 13.7574 11.5562 11.0406C16.0429 7.7654 21.1766 5.44027 26.4844 3.88185ZM20.7951 8.00708C28.2011 4.8569 36.2623 3.33182 44.2904 3.38182C43.1127 5.90696 41.9185 8.42377 40.7325 10.9572C40.6828 11.0823 40.5169 11.0656 40.4091 11.0906C33.2518 11.4823 26.0697 13.199 19.7667 16.6992C16.2502 18.7244 12.9412 21.3828 10.9093 24.9747C9.63207 27.1665 9.02665 29.7583 9.24228 32.2918C9.54914 35.8003 11.4069 39.0338 13.9115 41.434C17.204 44.7758 21.4502 46.976 25.8043 48.5761C25.8292 51.0429 25.8375 53.518 25.8541 55.9931C21.9147 54.7431 18.108 53.0346 14.6164 50.8179C10.619 48.2427 7.04451 44.8842 4.656 40.7339C3.0056 37.8754 2.06015 34.6003 2.02697 31.2917C1.97721 28.3832 2.64069 25.4664 3.893 22.8413C5.42729 19.6411 7.6997 16.8326 10.3536 14.5075C13.4388 11.7573 17.0547 9.69884 20.7951 8.00708ZM52.8161 4.04019C59.3762 4.93191 65.8368 6.91535 71.6008 10.2072C75.5567 12.4073 79.1146 15.3742 81.8349 19.0077C83.5433 21.2995 84.8454 23.9247 85.5172 26.7165C86.1889 29.5 86.1972 32.4418 85.5586 35.2253C84.9449 37.9671 83.676 40.5256 82.0422 42.7924C78.6751 47.5343 73.8317 51.0262 68.6151 53.468C62.9839 56.1348 56.8716 57.7266 50.693 58.3849C52.0033 55.8015 53.2722 53.193 54.6075 50.6345C60.0812 49.5594 65.5051 47.751 70.1909 44.6425C72.7535 42.9757 75.0425 40.8506 76.7012 38.2671C78.3682 35.667 79.1727 32.4585 78.6668 29.3833C78.0365 25.4331 75.507 22.0412 72.4716 19.5744C71.1695 18.5243 69.7596 17.6076 68.3414 16.7326C63.8547 14.2241 58.8869 12.674 53.8528 11.7906C53.4132 9.22382 53.1064 6.632 52.8161 4.04019ZM45.9159 2.32343C46.5379 1.09002 48.0225 0.715001 49.2914 0.598328C50.4193 0.531657 51.5555 0.623329 52.6751 0.82334C52.7331 1.43171 52.8244 2.04008 52.8824 2.65678C51.8872 2.31509 50.8422 2.08175 49.789 2.14008C48.7357 2.19008 47.5497 2.64844 47.1434 3.71517C44.3816 9.19882 41.8604 14.7991 39.2812 20.3661C40.5749 20.3745 41.8687 20.3494 43.1625 20.3828C44.4563 20.4411 45.8579 21.0162 46.4384 22.2496C47.0107 23.4163 46.6706 24.7997 46.0155 25.8498C43.4859 30.8667 40.973 35.892 38.4518 40.909C38.3357 41.1006 38.3938 41.334 38.3938 41.5423C38.4933 44.2091 38.5928 46.876 38.7006 49.5511C38.7089 49.6761 38.684 49.8011 38.626 49.9095C37.3986 52.4846 36.2126 55.0931 34.9603 57.6599C34.3217 57.5349 33.6748 57.4432 33.0445 57.3099C34.33 54.6681 35.6155 52.0262 36.8844 49.3761C36.8595 47.7343 36.7765 46.0926 36.7185 44.4592C36.677 44.5092 36.6438 44.5592 36.6024 44.6175C33.3679 51.1012 30.1418 57.6016 26.8907 64.0769C26.8825 64.0269 26.8659 63.9353 26.8576 63.8853C26.7581 51.0762 26.6502 38.2671 26.5507 25.4664C26.5258 24.208 26.4761 22.8163 27.2557 21.7412C28.0435 20.6578 29.4534 20.3328 30.714 20.2078C32.8952 20.1911 35.0764 20.2078 37.2659 20.1994C37.3903 20.2244 37.4151 20.0744 37.4649 19.9911C39.6046 15.2742 41.7526 10.5656 44.025 5.9153C44.6387 4.70689 45.2359 3.49016 45.9159 2.32343ZM49.4075 6.47366C49.9963 6.37366 50.5851 6.28198 51.174 6.20698C51.8789 10.8989 52.5922 15.5992 53.2888 20.2911C56.3823 20.3161 59.4757 20.3161 62.5692 20.3411C63.7386 20.4245 65.0738 20.8495 65.6046 21.9912C66.1188 23.1746 65.7539 24.5247 65.248 25.6581C58.8454 38.4255 52.4429 51.1929 46.0486 63.9603C45.9408 64.1686 45.8579 64.3853 45.7169 64.5686C45.7086 58.5683 45.7584 52.5763 45.7335 46.5759C45.0617 47.8093 44.4895 49.0928 43.8592 50.3428C43.7513 50.5928 43.5523 50.8262 43.5772 51.1262C43.5938 53.5347 43.6021 55.9348 43.6352 58.3433C42.98 58.3516 42.3166 58.3099 41.6614 58.2933C41.6863 55.8181 41.7443 53.3513 41.7692 50.8762C41.7775 50.7095 41.7609 50.5345 41.8355 50.3845C46.032 41.8423 50.1954 33.2835 54.3835 24.7414C54.8397 24.108 54.9641 23.1246 54.3421 22.5579C53.6454 21.8912 52.617 22.0912 51.7545 22.0995C50.9584 16.8909 50.1871 11.6823 49.4075 6.47366ZM53.8528 12.9074C57.9746 13.5907 62.0052 14.8408 65.7787 16.6492C68.2834 17.9243 70.7216 19.4244 72.7452 21.4078C74.4039 23.0163 75.8138 24.9247 76.6183 27.0998C77.3149 28.9583 77.5223 31.0084 77.174 32.9668C76.5519 36.567 74.2049 39.6172 71.4515 41.8923C66.7906 45.5759 61.1261 47.7927 55.3456 48.9177C55.4866 48.6344 55.6359 48.3594 55.7851 48.0844C57.6346 47.651 59.5089 47.2176 61.2588 46.4759C60.6783 46.0426 60.0977 45.6176 59.484 45.2425C58.5303 45.8759 57.5848 46.5343 56.5481 47.0093C56.6974 46.7093 56.7555 46.2926 57.1038 46.1509C57.7673 45.7926 58.3893 45.3592 59.0279 44.9509C58.5966 44.6508 58.1239 44.4342 57.6678 44.1925C57.7258 44.0508 57.7839 43.9091 57.8419 43.7591C58.4391 43.9175 58.9201 44.3425 59.484 44.5925C61.8891 42.8007 63.9376 40.4839 65.2646 37.7671C64.0786 37.2837 62.876 36.8337 61.6652 36.4087C61.7315 36.267 61.7896 36.117 61.8559 35.9753C63.0751 36.3837 64.2776 36.8337 65.4636 37.3171C66.3427 35.4503 66.7989 33.3919 66.8569 31.3251C66.0193 31.3167 65.1816 31.3334 64.344 31.3167C64.4269 31.1334 64.5264 30.9584 64.6343 30.7834C65.3724 30.775 66.1188 30.7917 66.8569 30.775C66.8486 29.6 66.7242 28.4249 66.4588 27.2832C66.3593 26.9832 66.5998 26.7165 66.6661 26.4331C66.7325 26.4748 66.774 26.5415 66.7906 26.6165C67.1803 27.9665 67.3545 29.3666 67.396 30.7667C70.448 30.7834 73.5 30.7667 76.5519 30.775C76.5271 27.3498 74.6279 24.233 72.2062 21.9495C70.8046 23.2163 69.0049 23.908 67.2218 24.433C67.2301 24.258 67.2467 24.0747 67.2633 23.8997C68.9054 23.4413 70.5309 22.7579 71.8164 21.6079C71.41 21.0912 70.8461 20.7161 70.3319 20.3161C67.8853 18.4577 65.1485 17.0159 62.2623 15.9659C61.7067 16.4492 61.0847 16.8409 60.4875 17.2659C61.2837 17.9326 62.113 18.591 62.7599 19.4161C62.5609 19.4327 62.3618 19.4411 62.1628 19.4494C61.4827 18.7827 60.7861 18.1327 60.0231 17.566C58.3976 18.591 56.6477 19.4077 54.8065 19.9494C54.7567 19.7828 54.7153 19.6244 54.6738 19.4577C56.3906 18.8994 58.1073 18.241 59.6084 17.2159C57.9249 15.9409 56.0422 14.9241 54.0767 14.1741C54.0103 13.7574 53.8776 13.3407 53.8528 12.9074ZM20.4301 17.6243C26.4263 14.2408 33.285 12.6907 40.0939 12.1907C39.9778 12.4407 39.8617 12.6907 39.7456 12.9407C38.9743 13.0324 38.203 13.0907 37.44 13.2074C34.2719 13.9824 31.2282 15.3492 28.6407 17.3493C30.0754 18.141 31.6014 18.7327 33.1191 19.3244C32.5386 19.2744 31.9 19.4577 31.3692 19.1494C30.2745 18.7744 29.2627 18.2077 28.2343 17.6826C25.8707 19.5494 23.8968 21.9745 22.6943 24.7497C23.6314 25.1997 24.6432 25.4497 25.6218 25.7831C25.6218 25.9498 25.6053 26.1248 25.6053 26.2998C24.5603 25.9914 23.5319 25.6331 22.5035 25.2581C21.7986 27.0082 21.4088 28.8999 21.4171 30.7917C22.8353 30.8 24.2451 30.7834 25.655 30.8C25.655 30.9751 25.655 31.1584 25.6633 31.3334C24.2534 31.3334 22.8435 31.3417 21.4419 31.3251C21.4337 33.3169 21.9313 35.292 22.7026 37.1171C23.6812 36.7587 24.6515 36.367 25.6633 36.1253C25.6716 36.3087 25.6633 36.492 25.655 36.6754C24.7179 36.9004 23.8056 37.2254 22.9016 37.5588C23.6148 39.0255 24.5188 40.4006 25.5721 41.634C25.8209 41.8673 25.6799 42.234 25.7214 42.534C24.3944 41.1173 23.2831 39.5089 22.4455 37.7588C20.3804 38.5672 18.4148 39.6172 16.5322 40.7756C19.1861 43.1757 22.4206 44.8342 25.7214 46.1426C25.7214 46.4009 25.7214 46.6593 25.7214 46.9176C21.0853 45.1675 16.5322 42.6257 13.4636 38.6338C11.6308 36.2504 10.5278 33.2335 10.7766 30.2C10.9507 27.6749 12.0372 25.2831 13.588 23.3079C15.4209 20.9578 17.8426 19.0994 20.4301 17.6243ZM26.3102 15.7409C26.9322 16.1825 27.5293 16.6659 28.1596 17.0826C29.951 15.6492 32.0161 14.6241 34.1061 13.6991C31.4522 14.1491 28.8397 14.8241 26.3102 15.7409ZM16.2668 21.5329C18.166 22.6912 20.1233 23.7913 22.2215 24.5497C23.3992 21.7245 25.4145 19.3327 27.7367 17.3826C27.0483 16.9326 26.3766 16.4659 25.7463 15.9325C22.3376 17.3076 19.0037 19.0327 16.2668 21.5329ZM11.4649 30.7917C14.6164 30.7917 17.768 30.8 20.9112 30.7917C20.9195 28.8333 21.301 26.8832 21.9976 25.0581C19.8828 24.158 17.8509 23.0746 15.8687 21.9162C13.4554 24.233 11.5562 27.3498 11.4649 30.7917ZM11.4732 31.3251C11.5396 34.8753 13.5881 38.0671 16.1176 40.4089C18.0831 39.2255 20.115 38.1421 22.2547 37.3087C21.4088 35.4336 20.9775 33.3835 20.9112 31.3334C17.768 31.3334 14.6247 31.3334 11.4732 31.3251ZM65.729 37.9671C64.4186 40.7173 62.3287 43.0424 59.9319 44.8925C60.6119 45.3092 61.2173 45.8426 61.8808 46.2759C65.306 45.0092 68.6151 43.2924 71.4017 40.8839C69.6103 39.7256 67.6697 38.8255 65.729 37.9671ZM67.3296 31.6334C67.2467 33.6585 66.7491 35.6586 65.9612 37.5254C67.9599 38.4421 69.9587 39.3839 71.8247 40.5589C74.3957 38.1755 76.5188 34.9586 76.5519 31.3334C73.5248 31.3334 70.4977 31.3334 67.4706 31.3334C67.2882 31.3084 67.3545 31.5334 67.3296 31.6334ZM54.4831 13.7907C56.432 14.6658 58.3478 15.6492 60.0729 16.9326C60.6368 16.5576 61.2091 16.1909 61.6984 15.7242C59.3347 14.9325 56.9379 14.2158 54.4831 13.7907ZM56.0257 22.0745C56.4403 22.3662 56.6725 22.8746 56.6477 23.383C56.6145 24.3747 56.1169 25.2664 55.6939 26.1414C52.9902 31.7001 50.2617 37.2504 47.5663 42.8174C47.5414 44.3175 47.5497 45.8259 47.5663 47.3343C51.1242 40.3089 54.6655 33.2752 58.2068 26.2415C58.8371 26.2331 59.4757 26.2331 60.106 26.2415C55.9344 34.5753 51.7379 42.9007 47.5663 51.2345C47.5249 53.1096 47.5497 54.9848 47.558 56.8599C52.6834 46.7343 57.7507 36.5754 62.8595 26.4331C63.3073 25.4914 63.8961 24.5414 63.921 23.4663C63.9459 22.6579 63.1083 22.1912 62.4033 22.1329C60.2719 22.0995 58.1488 22.1079 56.0257 22.0745ZM49.4904 3.17347C50.1373 2.9818 50.8754 3.39015 51.0413 4.04852C51.2735 4.77356 50.7095 5.61528 49.9548 5.65695C49.3577 5.73195 48.7523 5.31526 48.6113 4.72356C48.4123 4.07352 48.8435 3.34015 49.4904 3.17347ZM37.3737 58.0016C38.1284 56.4015 38.9411 54.8181 39.7456 53.2347C39.7705 54.9014 39.7788 56.5598 39.7954 58.2183C38.9826 58.2266 38.1781 58.1183 37.3737 58.0016ZM28.8563 22.5996C28.3919 23.0913 28.3421 23.8246 28.3255 24.4664C28.284 29.275 28.2094 34.0836 28.1762 38.8922C30.4072 34.6836 32.6215 30.475 34.8276 26.2581C35.5325 26.2331 36.2458 26.2498 36.9507 26.2498C36.7683 26.7248 36.4863 27.1665 36.2541 27.6249C33.6748 32.4668 31.1038 37.3254 28.5246 42.184C28.425 42.384 28.2758 42.5674 28.2758 42.8007C28.284 44.5258 28.2426 46.2509 28.2758 47.976C32.0078 40.7589 35.6818 33.5085 39.4056 26.2831C40.0608 26.2248 40.7242 26.2665 41.3794 26.2415C37.0834 34.6836 32.7708 43.1174 28.4748 51.5512C28.4084 51.6762 28.425 51.8262 28.425 51.9596C28.4582 53.768 28.425 55.5765 28.425 57.3849C33.8241 46.5009 39.1816 35.6003 44.5724 24.708C44.8544 24.108 45.0451 23.358 44.6885 22.7496C44.3319 22.1746 43.6104 22.0245 42.9883 22.0329C38.8997 22.0412 34.8027 22.0412 30.714 22.0412C30.0754 22.0745 29.3456 22.1162 28.8563 22.5996Z" fill="#1A1A1A" />
</svg>
