<svg width="26" height="25" viewBox="0 0 26 25" fill="none" xmlns="http://www.w3.org/2000/svg">
  <path fill-rule="evenodd" clip-rule="evenodd" d="M3.89998 1.89998C3.07155 1.89998 2.39998 2.57155 2.39998 3.39998C2.39998 4.22841 3.07155 4.89998 3.89998 4.89998C4.72841 4.89998 5.39998 4.22841 5.39998 3.39998C5.39998 2.57155 4.72841 1.89998 3.89998 1.89998ZM0.599976 3.39998C0.599976 1.57744 2.07744 0.0999756 3.89998 0.0999756C5.72252 0.0999756 7.19998 1.57744 7.19998 3.39998C7.19998 5.22252 5.72252 6.69998 3.89998 6.69998C2.07744 6.69998 0.599976 5.22252 0.599976 3.39998ZM25.5 4.29997H10.2999V2.49997H25.5V4.29997ZM3.89998 10.7C3.07155 10.7 2.39998 11.3716 2.39998 12.2C2.39998 13.0284 3.07155 13.7 3.89998 13.7C4.72841 13.7 5.39998 13.0284 5.39998 12.2C5.39998 11.3716 4.72841 10.7 3.89998 10.7ZM0.599976 12.2C0.599976 10.3774 2.07744 8.89999 3.89998 8.89999C5.72252 8.89999 7.19998 10.3774 7.19998 12.2C7.19998 14.0225 5.72252 15.5 3.89998 15.5C2.07744 15.5 0.599976 14.0225 0.599976 12.2ZM25.5 13.1H10.2999V11.3H25.5V13.1ZM3.89998 19.5C3.07155 19.5 2.39998 20.1716 2.39998 21C2.39998 21.8284 3.07155 22.5 3.89998 22.5C4.72841 22.5 5.39998 21.8284 5.39998 21C5.39998 20.1716 4.72841 19.5 3.89998 19.5ZM0.599976 21C0.599976 19.1775 2.07744 17.7 3.89998 17.7C5.72252 17.7 7.19998 19.1775 7.19998 21C7.19998 22.8225 5.72252 24.3 3.89998 24.3C2.07744 24.3 0.599976 22.8225 0.599976 21ZM25.5 21.9H10.2999V20.1H25.5V21.9Z" fill="white" />
</svg>
