<svg width="33" height="32" viewBox="0 0 33 32" fill="none" xmlns="http://www.w3.org/2000/svg">
  <path d="M22.2832 20.3911L27.5 25.6069L26.1069 27L20.8911 21.7832C19.3224 23.0407 17.3713 23.7246 15.3609 23.7218C10.4697 23.7218 6.5 19.7521 6.5 14.8609C6.5 9.96968 10.4697 6 15.3609 6C20.2521 6 24.2218 9.96968 24.2218 14.8609C24.2246 16.8713 23.5407 18.8224 22.2832 20.3911ZM20.3082 19.6605C21.5577 18.3756 22.2555 16.6532 22.2527 14.8609C22.2527 11.0537 19.1681 7.96909 15.3609 7.96909C11.5537 7.96909 8.46909 11.0537 8.46909 14.8609C8.46909 18.6681 11.5537 21.7527 15.3609 21.7527C17.1532 21.7555 18.8756 21.0577 20.1605 19.8082L20.3082 19.6605Z" fill="white" />
</svg>
