<svg width="50" height="48" viewBox="0 0 50 48" fill="none" xmlns="http://www.w3.org/2000/svg">
  <path d="M0.492432 47.9999V4.00134C0.492432 2.1343 2.11854 0.500641 4.20924 0.500641C6.06765 0.500641 7.69376 2.1343 7.69376 4.00134V43.9999C7.69376 45.867 9.31986 47.5006 11.1783 47.5006C13.0367 47.5006 14.6628 45.867 14.6628 43.9999V4.00134C14.6628 2.1343 16.2889 0.500641 18.1473 0.500641C20.0057 0.500641 21.6318 2.1343 21.6318 4.00134V43.9999C21.6318 45.867 23.2579 47.5006 25.1163 47.5006C26.9747 47.5006 28.6008 45.867 28.6008 43.9999V4.00134C28.6008 2.1343 30.2269 0.500641 32.0854 0.500641C33.9438 0.500641 35.5699 2.1343 35.5699 4.00134V43.9999C35.5699 45.867 37.196 47.5006 39.0544 47.5006C40.9128 47.5006 42.5389 45.867 42.5389 43.9999V4.00134C42.5389 2.1343 44.165 0.500641 46.0234 0.500641C47.8818 0.500641 49.5079 2.1343 49.5079 4.00134V47.9999" stroke="#E60018" stroke-miterlimit="22.9256" stroke-linejoin="round" />
</svg>
