<svg width="88" height="88" viewBox="0 0 88 88" fill="none" xmlns="http://www.w3.org/2000/svg">
  <path d="M39.7949 63.2542V83M54.2006 63.2542V83M68.5943 63.2542V83M5 73.1332V5H24.7458V49.2975M5 48.2052H24.7458M5 33.8116H24.7458M5 19.4058H24.7458M7.88838 66.1427L56.0574 17.9737L70.0141 31.9304L38.7025 63.2542M25.5104 48.5208L39.4671 62.4775M35.6927 38.3384L49.6495 52.2952M45.8872 28.1561L59.844 42.1128M83 83H14.879C9.42975 83 5.01214 78.5824 5.01214 73.1332C5.01214 67.684 9.42975 63.2664 14.879 63.2664H83V83Z" stroke="white" stroke-width="1.5" stroke-miterlimit="22.926" stroke-linejoin="round" />
</svg>
