<svg width="88" height="88" viewBox="0 0 88 88" fill="none" xmlns="http://www.w3.org/2000/svg">
  <path d="M30.1435 39.4118L14.5435 23.8118C19.6824 18.6729 28.0329 18.6729 33.08 23.8118L37.4847 28.2165M30.9694 50.5153H8.85412C8.85412 43.2659 14.7271 37.3929 21.9765 37.3929H28.2165M39.4118 57.8565L23.8118 73.5482C18.6729 68.4094 18.6729 60.0588 23.8118 55.0118L28.2165 50.6071M50.5153 57.0306V79.1459C43.2659 79.1459 37.3929 73.2729 37.3929 66.0235V59.7835M37.3929 30.9694V8.85412C44.6424 8.85412 50.5153 14.7271 50.5153 21.9765V30.9694M57.8565 48.4965L73.5482 64.1882C68.4094 69.3271 60.0588 69.3271 55.0118 64.1882L50.6071 59.7835M57.0306 37.3929H79.1459C79.1459 44.6424 73.2729 50.5153 66.0235 50.5153H59.8753M50.5153 27.9412L64.1882 14.5435C69.3271 19.6824 69.3271 28.0329 64.1882 33.08L59.9277 37.3929M5 44C5 22.4353 22.4353 5 44 5C65.5647 5 83 22.4353 83 44C83 65.5647 65.5647 83 44 83C22.4353 83 5 65.5647 5 44ZM48.8635 44C48.8635 46.6861 46.6861 48.8635 44 48.8635C41.3139 48.8635 39.1365 46.6861 39.1365 44C39.1365 41.3139 41.3139 39.1365 44 39.1365C46.6861 39.1365 48.8635 41.3139 48.8635 44ZM30.0518 39.6871C29.5929 41.0635 29.4094 42.5318 29.4094 44C29.4094 51.9835 35.9247 58.5906 44 58.5906C51.9835 58.5906 58.5906 51.9835 58.5906 44C58.5906 36.0165 52.0753 29.4094 44 29.4094C37.4847 29.4094 31.8871 33.7224 30.0518 39.6871Z" stroke="white" stroke-width="1.5" stroke-miterlimit="22.926" stroke-linejoin="round" />
</svg>
