<svg width="88" height="88" viewBox="0 0 88 88" fill="none" xmlns="http://www.w3.org/2000/svg">
  <path d="M17.5593 34.3221H11.6102C7.95954 34.3221 5 37.2684 5 40.9026V54.0637C5 57.698 7.95954 60.6442 11.6102 60.6442H17.5593V34.3221ZM17.5593 34.3221C17.5593 19.7847 29.3971 8 44 8C58.6027 8 70.4407 19.7847 70.4407 34.3221M70.4407 60.6442H76.3898C80.0405 60.6442 83 57.698 83 54.0637V40.9026C83 37.2684 80.0405 34.3221 76.3898 34.3221H70.4407M70.4407 60.6442V34.3221M70.4407 60.6442C70.4407 67.9129 64.5218 73.8053 57.2203 73.8053H50.6102M50.6102 73.8053C50.6102 77.4396 47.6507 80.3858 44 80.3858C40.3493 80.3858 37.3898 77.4396 37.3898 73.8053C37.3898 70.171 40.3493 67.2248 44 67.2248C47.6507 67.2248 50.6102 70.171 50.6102 73.8053Z" stroke="white" stroke-width="1.5" stroke-miterlimit="22.926" stroke-linecap="round" stroke-linejoin="round" />
</svg>
