<svg width="88" height="88" viewBox="0 0 88 88" fill="none" xmlns="http://www.w3.org/2000/svg">
  <path d="M37.3898 44.3559H83M37.3898 44.3559C37.3898 49.832 32.9506 54.2712 27.4746 54.2712C21.9985 54.2712 17.5593 49.832 17.5593 44.3559M37.3898 44.3559C37.3898 38.8799 32.9506 34.4407 27.4746 34.4407C21.9985 34.4407 17.5593 38.8799 17.5593 44.3559M5 44.3559H17.5593M50.6102 17.9153H5M50.6102 17.9153C50.6102 23.3913 55.0494 27.8305 60.5254 27.8305C66.0015 27.8305 70.4407 23.3913 70.4407 17.9153M50.6102 17.9153C50.6102 12.4392 55.0494 8 60.5254 8C66.0015 8 70.4407 12.4392 70.4407 17.9153M83 17.9153H70.4407M50.6102 70.7966H5M50.6102 70.7966C50.6102 76.2726 55.0494 80.7119 60.5254 80.7119C66.0015 80.7119 70.4407 76.2726 70.4407 70.7966M50.6102 70.7966C50.6102 65.3206 55.0494 60.8814 60.5254 60.8814C66.0015 60.8814 70.4407 65.3206 70.4407 70.7966M83 70.7966H70.4407" stroke="white" stroke-width="1.5" stroke-miterlimit="10" stroke-linejoin="round" />
</svg>
